<svg xmlns="http://www.w3.org/2000/svg" width="50" height="50" viewBox="0 0 50 50">
  <defs>
    <style>
      .cls-1 {
        fill: #707070;
      }
    </style>
  </defs>
  <path id="_ionicons_svg_logo-github" class="cls-1" d="M57,32C43.194,32,32,43.484,32,57.636A25.587,25.587,0,0,0,49.1,81.955a1.96,1.96,0,0,0,.424.045,1.21,1.21,0,0,0,1.283-1.272c0-.614-.022-2.221-.033-4.364a11.429,11.429,0,0,1-2.522.3c-4.81,0-5.9-3.739-5.9-3.739-1.138-2.958-2.779-3.75-2.779-3.75-2.176-1.529-.011-1.574.156-1.574h.011a5.374,5.374,0,0,1,3.828,2.656,4.908,4.908,0,0,0,4.42,2.8,7.026,7.026,0,0,0,2.857-.67,5.538,5.538,0,0,1,1.585-3.426C46.877,68.317,41.04,66.118,41.04,56.3a10.034,10.034,0,0,1,2.567-6.875,9.437,9.437,0,0,1,.246-6.786,2.081,2.081,0,0,1,.558-.056c.9,0,2.946.346,6.317,2.69a23.238,23.238,0,0,1,12.522,0c3.371-2.344,5.413-2.69,6.317-2.69a2.081,2.081,0,0,1,.558.056,9.437,9.437,0,0,1,.246,6.786A10.075,10.075,0,0,1,72.938,56.3c0,9.844-5.848,12.009-11.417,12.645a6.216,6.216,0,0,1,1.7,4.743c0,3.426-.033,6.194-.033,7.031A1.2,1.2,0,0,0,64.455,82a2.16,2.16,0,0,0,.446-.045A25.583,25.583,0,0,0,82,57.636C82,43.484,70.806,32,57,32Z" transform="translate(-32 -32)"/>
</svg>
