<svg xmlns="http://www.w3.org/2000/svg" width="250.398" height="250.398" viewBox="0 0 250.398 250.398">
  <defs>
    <style>
      .cls-1 {
        fill: #262626;
      }
    </style>
  </defs>
  <path id="_ionicons_svg_md-cube" class="cls-1" d="M275.3,108.07a7.013,7.013,0,0,0-2.851.559l-99.265,51.477h-.056a14.091,14.091,0,0,0-6.987,11.961v103.9c0,3.577,3.13,6.428,7.1,6.428a7.647,7.647,0,0,0,3.409-.782,1.223,1.223,0,0,0,.279-.168l97.644-51.812.168-.056a14.189,14.189,0,0,0,7.657-12.352V114.5C282.4,110.92,279.212,108.07,275.3,108.07Zm-7.266-27.723L166.477,34.683S160.5,32,157.2,32s-9.222,2.683-9.222,2.683L46.308,80.347s-4.471,1.844-4.471,5.31c0,3.689,4.639,6.428,4.639,6.428l103.681,54.663a17.618,17.618,0,0,0,14.141-.056L267.922,91.973s4.192-2.236,4.192-6.428c.056-3.521-4.08-5.2-4.08-5.2ZM141.27,160.106,41.949,108.573a7.846,7.846,0,0,0-2.851-.559c-3.912,0-7.1,2.851-7.1,6.428v102.73a14.189,14.189,0,0,0,7.657,12.352l.112.056,97.644,51.812a7.393,7.393,0,0,0,3.689.95c3.912,0,7.1-2.906,7.1-6.428V172.067A13.967,13.967,0,0,0,141.27,160.106Z" transform="translate(-32 -32)"/>
</svg>
