<svg xmlns="http://www.w3.org/2000/svg" width="250.398" height="250.398" viewBox="0 0 250.398 250.398">
  <defs>
    <style>
      .cls-1 {
        fill: #262626;
      }
    </style>
  </defs>
  <path id="_ionicons_svg_md-cut" class="cls-1" d="M127.632,102.592a48.335,48.335,0,0,0,4.527-20.513,50.08,50.08,0,1,0-50.08,50.08,48.335,48.335,0,0,0,20.513-4.527L132.159,157.2l-29.567,29.567a48.335,48.335,0,0,0-20.513-4.527,50.08,50.08,0,1,0,50.08,50.08,48.335,48.335,0,0,0-4.527-20.513L157.2,182.239l87.639,87.639H282.4v-12.52ZM82.08,107.12a25.04,25.04,0,1,1,25.04-25.04,25.034,25.034,0,0,1-25.04,25.04Zm0,150.239a25.04,25.04,0,1,1,25.04-25.04A25.034,25.034,0,0,1,82.08,257.359Zm75.119-93.9a6.26,6.26,0,1,1,6.26-6.26A6.18,6.18,0,0,1,157.2,163.459ZM244.839,44.52l-75.119,75.12,25.04,25.04L282.4,57.04V44.52Z" transform="translate(-32 -32)"/>
</svg>
